<svg xmlns="http://www.w3.org/2000/svg" xmlns:xlink="http://www.w3.org/1999/xlink" xml:space="preserve" version="1.1" style="shape-rendering:geometricPrecision;text-rendering:geometricPrecision;image-rendering:optimizeQuality;" viewBox="0 0 151 215" x="0px" y="0px" fill-rule="evenodd" clip-rule="evenodd"><defs><style type="text/css">
   
    .fil1 {fill:black;fill-rule:nonzero}
    .fil0 {fill:black;fill-rule:nonzero}
   
  </style></defs><g><path class="fil0" d="M61 20c-6,6 10,10 12,3 1,-4 -9,-5 -12,-3z"/><path class="fil0" d="M34 38c7,8 10,12 20,9 -16,-10 -14,-24 -4,-30 6,-3 8,-11 22,-7 -3,-12 -16,-10 -27,-3 -2,2 -23,9 -11,31z"/><path class="fil0" d="M79 32c6,-8 -1,-11 -4,-10 -5,15 -22,-3 -21,6 5,9 18,12 25,4z"/><path class="fil0" d="M57 13c-4,2 -5,10 1,9 -2,-9 24,-2 25,2 1,1 1,2 1,3 3,2 8,-4 3,-8 -8,-9 -25,-11 -30,-6z"/><path class="fil0" d="M84 30c-15,19 -35,1 -31,-5 1,-4 -1,-5 0,-8 -9,6 -10,12 -7,18 4,12 21,12 30,9 8,-2 16,-11 8,-14z"/><path class="fil0" d="M53 75c2,-7 -21,-5 -26,-24 -14,16 20,33 26,24z"/><path class="fil0" d="M76 9c7,1 20,9 13,17 6,15 -15,28 -32,20 -6,6 29,18 41,-3 13,-20 -9,-44 -23,-35 -1,1 0,1 1,1z"/><path class="fil0" d="M26 46c8,17 17,23 37,22 6,-1 29,-2 29,-16 -2,3 -19,10 -37,-1 -15,2 -24,-10 -25,-19 -10,3 -7,7 -4,14z"/><path class="fil0" d="M74 6c24,-9 42,28 21,44 1,4 30,-3 22,-26 -10,-31 -43,-26 -43,-18z"/><path class="fil0" d="M56 70c-4,0 0,7 12,9 22,5 45,-13 44,-31 -5,4 -10,6 -16,6 -3,9 -12,13 -20,15 -11,2 -14,0 -20,1z"/><path class="fil0" d="M28 139c0,1 0,1 -1,2 4,2 15,-1 18,-3 -1,2 0,3 -1,4 5,0 14,-6 15,-7 1,1 1,1 1,2 2,-1 3,-2 6,-6 4,-6 7,-17 6,-18 -1,-1 -2,0 -3,1 -1,5 -3,11 -7,16 1,-3 6,-11 5,-16 -2,0 -4,2 -8,3 -3,7 -3,12 -10,18 4,-6 7,-9 8,-17 -5,0 -15,4 -17,9 0,0 0,0 -1,0 -2,2 -5,4 -7,7 5,-6 8,-9 8,-11 -1,-1 -6,-1 -14,0 -2,3 -5,5 -8,7 2,-2 5,-5 5,-7 -4,1 -14,-3 -17,-2 3,-2 14,3 17,0 -3,-1 -6,-4 -10,-6 4,2 8,4 11,6 2,1 5,0 8,0 -3,-5 -6,-8 -9,-9 10,2 4,11 19,8 2,0 4,-1 5,-2 -1,-5 -7,-10 -13,-12 5,-1 13,9 16,12 5,-1 10,-2 11,-4 -4,-4 -11,-7 -16,-9 6,2 12,4 18,8 2,-2 5,-2 7,-3 -3,-6 -12,-9 -17,-11 0,2 0,2 0,4 -4,-4 -13,-5 -18,-5 0,1 1,2 1,3 -4,-1 -7,0 -11,1 1,0 1,1 1,2 -3,-1 -6,1 -11,3 1,2 1,2 2,4 -3,-1 -9,0 -11,2 1,1 0,2 1,3 -3,0 -4,1 -7,5 3,3 6,5 8,5 0,0 -2,1 -2,2 5,6 10,2 7,7 5,3 6,4 15,4z"/><path class="fil1" d="M75 85c1,37 34,72 63,87 -31,-5 -68,-51 -69,-86l6 -1z"/><path class="fil0" d="M148 98c1,0 2,1 3,0 0,5 -6,16 -10,19 3,-1 3,1 5,0 -1,5 -11,13 -13,14 1,1 0,2 2,2 -2,1 -3,2 -8,4 -8,3 -22,2 -23,0 0,-1 1,-2 2,-3 7,1 13,0 21,-2 -4,0 -14,3 -19,0 0,-2 3,-4 5,-7 9,-1 15,0 24,-5 -8,2 -13,4 -22,3 3,-6 9,-16 16,-16 0,0 0,0 0,0 4,-2 7,-4 10,-6 -8,3 -13,6 -14,4 -1,-1 1,-6 5,-15 4,-1 6,-3 10,-6 -2,2 -7,4 -9,4 2,-5 2,-17 3,-20 -3,2 -1,16 -5,18 -1,-3 -2,-7 -3,-13 0,5 1,10 2,15 0,2 -2,5 -2,8 -5,-4 -7,-8 -7,-13 -2,12 10,9 1,24 -1,2 -2,4 -3,5 -5,-4 -9,-12 -9,-18 -3,5 5,17 7,21 -2,5 -5,10 -8,10 -2,-5 -3,-14 -4,-20 0,8 0,15 2,22 -2,2 -3,5 -5,7 -6,-6 -6,-17 -6,-23 2,2 2,1 4,2 -3,-6 -1,-16 1,-22 1,1 1,3 3,3 0,-5 3,-8 4,-12 1,1 2,2 3,2 0,-4 3,-7 7,-11 1,2 2,1 3,3 1,-4 4,-9 7,-11 1,1 2,1 3,2 1,-3 2,-4 7,-6 3,5 4,9 3,10 1,1 2,-1 3,-1 4,8 -1,12 5,11 2,6 3,7 -1,17z"/></g></svg>