<svg xmlns="http://www.w3.org/2000/svg" version="1.1" viewBox="-5.0 -10.0 110.0 135.0">
 <path d="m40.84 64.105c0.26953 1.7617 0.72656 3.4609 1.3438 5.0781-1.1719 0.39062-2.3828 0.69531-3.6289 0.90625-1.3242 0.22266-2.6914 0.33984-4.0859 0.33984-6.7148 0-12.797-2.7227-17.199-7.125-4.4023-4.4023-7.125-10.484-7.125-17.199 0-6.7148 2.7227-12.797 7.125-17.199 4.4023-4.4023 10.484-7.125 17.199-7.125s12.797 2.7227 17.199 7.125c4.4023 4.4023 7.125 10.484 7.125 17.199 0 4.1914-1.0586 8.1328-2.9258 11.574-1.8672 3.4492-4.5469 6.3906-7.7773 8.582-0.62891-1.8359-0.98047-3.8008-0.99609-5.8438 2-1.7656 3.625-3.9414 4.7461-6.3984 1.1016-2.4141 1.7148-5.0898 1.7148-7.9102 0-5.2695-2.1367-10.043-5.5898-13.496s-8.2266-5.5898-13.496-5.5898-10.043 2.1367-13.496 5.5898-5.5898 8.2266-5.5898 13.496 2.1367 10.043 5.5898 13.496 8.2266 5.5898 13.496 5.5898c1.168 0 2.3164-0.10547 3.4375-0.30859 1.0078-0.18359 1.9883-0.44531 2.9297-0.77734zm41.887-21.031c-4.4023-4.4023-10.484-7.125-17.199-7.125-1.3945 0-2.7578 0.11719-4.0859 0.33984-1.2461 0.21094-2.457 0.51563-3.6289 0.90625 0.61719 1.6172 1.0742 3.3203 1.3438 5.0781 0.94531-0.33203 1.9219-0.59766 2.9297-0.77734 1.1211-0.20312 2.2695-0.30859 3.4375-0.30859 5.2695 0 10.043 2.1367 13.496 5.5898s5.5898 8.2266 5.5898 13.496c0 5.2695-2.1367 10.043-5.5898 13.496s-8.2266 5.5898-13.496 5.5898c-5.2695 0-10.043-2.1367-13.496-5.5898s-5.5898-8.2266-5.5898-13.496c0-2.8203 0.61328-5.5 1.7148-7.9102 1.1211-2.457 2.7461-4.6367 4.7461-6.4023-0.015626-2.043-0.36328-4.0078-0.99609-5.8438-3.2305 2.1875-5.9102 5.1328-7.7773 8.582-1.8672 3.4414-2.9258 7.3828-2.9258 11.574 0 6.7148 2.7227 12.797 7.125 17.199 4.4023 4.4023 10.484 7.125 17.199 7.125 6.7148 0 12.797-2.7227 17.199-7.125s7.125-10.484 7.125-17.199c0-6.7148-2.7227-12.797-7.125-17.199zm-28.641-14.418c1.7852 1.5781 3.6367 3.2148 4.832 5.625 1.1992-2.4062 3.0508-4.0469 4.832-5.625 2.4375-2.1562 4.7461-4.1992 4.9062-7.9492v-0.003906c0.070312-1.6289-0.47266-2.9492-1.3477-3.8633-0.59375-0.62109-1.3398-1.0547-2.1484-1.2734s-1.6836-0.22266-2.5352 0.019532c-1.293 0.37109-2.5352 1.3203-3.418 2.9531v0.003907l-0.003906 0.003906v0.003906c-0.003906 0.007813-0.011719 0.019531-0.015625 0.027344v0.003906l-0.050781 0.050781h-0.003907c-0.007812 0.007813-0.015624 0.011719-0.027343 0.015626h-0.003907l-0.003906 0.003906-0.007812 0.003906h-0.003906l-0.003907 0.003906-0.007812 0.003906h-0.003907c-0.039062 0.015626-0.078124 0.023438-0.11719 0.027344h-0.019531c-0.039063 0-0.078125-0.011718-0.11719-0.027344h-0.003906l-0.007812-0.003906-0.003907-0.003906h-0.003906l-0.007813-0.003906-0.003906-0.003906h-0.003906c-0.007812-0.003907-0.019531-0.011719-0.027344-0.015626h-0.003906l-0.050781-0.050781v-0.003906c-0.007813-0.007813-0.011719-0.015625-0.015625-0.027344v-0.003906l-0.003906-0.003906v-0.003907c-0.88281-1.6328-2.125-2.582-3.418-2.9531-0.85156-0.24219-1.7266-0.24219-2.5352-0.019532-0.80859 0.21875-1.5547 0.65625-2.1484 1.2734-0.875 0.91406-1.418 2.2344-1.3516 3.8633v0.003906c0.16016 3.75 2.4688 5.793 4.9062 7.9492zm19.648 3.0586c1.2617 1.1172 2.5742 2.2773 3.4219 3.9844 0.84766-1.7031 2.1602-2.8672 3.4219-3.9844 1.7266-1.5273 3.3594-2.9727 3.4766-5.6289v-0.003907c0.050781-1.1523-0.33594-2.0859-0.95703-2.7344-0.41797-0.4375-0.94922-0.74609-1.5195-0.90234-0.57422-0.15625-1.1914-0.15625-1.7969 0.015626-0.91797 0.26172-1.7969 0.93359-2.4219 2.0898v0.007813c-0.003906 0.007812-0.007813 0.011718-0.011719 0.019531l-0.050781 0.050781c-0.007813 0.003906-0.011719 0.007813-0.019531 0.011719h-0.007813l-0.003906 0.003906h-0.007813c-0.027343 0.011719-0.054687 0.019531-0.082031 0.019531h-0.015625c-0.027344 0-0.054687-0.007812-0.082031-0.019531h-0.007813l-0.003906-0.003906h-0.007812c-0.007813-0.003906-0.011719-0.007813-0.019532-0.011719l-0.050781-0.050781c-0.003906-0.007813-0.007812-0.011719-0.011719-0.019531v-0.007813c-0.625-1.1562-1.5039-1.8281-2.4219-2.0898-0.60156-0.17188-1.2227-0.17188-1.7969-0.015626-0.57422 0.15625-1.1016 0.46484-1.5195 0.90234-0.62109 0.64844-1.0039 1.582-0.95703 2.7344v0.003907c0.11328 2.6562 1.75 4.1016 3.4766 5.6289z" fill-rule="evenodd"/>
</svg>