<svg xmlns="http://www.w3.org/2000/svg" xmlns:xlink="http://www.w3.org/1999/xlink" version="1.1" x="0px" y="0px" viewBox="0 0 100 125" enable-background="new 0 0 100 100" xml:space="preserve"><path d="M24.121,86.511h51.758v-1.606l-51.758,0.01V86.511z M75.879,87.711v-0.13H24.121v0.141l-2.129,2.081h56.026L75.879,87.711z   M79.111,90.873H20.898l-0.887,0.87v1.693l59.977-0.01v-1.695L79.111,90.873z M60.449,44.78l-9.72-19.445V11.296h4.36V9.331h-4.36  V6.563h-2.233v2.768h-4.358v1.965h4.358V25.36l-8.944,19.42v38.756h20.897V44.78z M55.084,83.269H44.916V64.409l4.877-10.586  l5.291,10.586V83.269z M38.568,53.262l-0.012,0.013l-0.009-1.759l-3.679-6.987v-8.428h3.306v-1.307h-3.306v-1.461h-1.306v1.461  h-3.306v1.307h3.306v8.617l-3.445,6.798v10.196l-6.084,6.084v15.638l14.505,0.003L38.568,53.262z M32.405,75.47h-2.21v-6.969h2.21  V75.47z M75.965,83.434V67.796l-6.084-6.083V51.516l-3.475-6.858v-8.557h3.307v-1.307h-3.307v-1.461H65.1v1.461h-3.305v1.307H65.1  v8.485l-3.648,6.93l-0.008,1.759l-0.012-0.013l0.029,30.175L75.965,83.434z M67.594,68.501h2.211v6.969h-2.211V68.501z"/></svg>