<?xml version="1.0" encoding="utf-8"?><!DOCTYPE svg PUBLIC "-//W3C//DTD SVG 1.1//EN" "http://www.w3.org/Graphics/SVG/1.1/DTD/svg11.dtd"><svg version="1.1" xmlns="http://www.w3.org/2000/svg" xmlns:xlink="http://www.w3.org/1999/xlink" x="0px" y="0px" viewBox="0 0 82.493 125" enable-background="new 0 0 82.493 100" xml:space="preserve"><path fill="#010101" d="M77.474,22.956c-2.254-1.503-5.343-2.814-9.173-3.896c-7.293-2.055-16.9-3.189-27.057-3.189
	c-7.394,0-14.493,0.604-20.625,1.724L15.708,1.775l0,0c-0.497-1.602-3.04-2.237-5.68-1.417c-2.64,0.82-4.376,2.782-3.879,4.387
	l4.77,15.36c-2.352,0.849-4.33,1.804-5.903,2.853C0.872,25.722,0,28.848,0,30.983l0.129,54.662v0.59l0.142,0.571
	c1.14,4.565,6.01,7.924,14.894,10.269C22.316,98.961,31.579,100,41.246,100c9.668,0,18.932-1.039,26.082-2.926
	C76.21,94.73,81.08,91.372,82.22,86.806l0.143-0.571v-0.59l0.13-54.65C82.492,28.846,81.621,25.72,77.474,22.956z M4.851,34.922
	c1.78,1.636,4.802,3.271,9.779,4.628c0.806,0.22,1.647,0.427,2.519,0.623l3.147,10.136c-7.567,1.404-13.156,3.546-15.396,6.051
	L4.851,34.922z M66.867,77.089c-0.025,0.171-0.082,0.336-0.177,0.483c-0.083,0.129-0.193,0.246-0.328,0.34
	c-0.128,0.087-0.268,0.144-0.41,0.178c-0.381,0.09-0.783-0.007-1.08-0.271c-0.072-0.062-0.138-0.133-0.196-0.216l-0.451-0.655
	l-0.418-0.604L62.4,74.312c-0.41-0.378-1.062-0.45-1.541-0.134l-1.927,1.266l-0.602,0.398l-0.896,0.588l-1.544,1.015l-3.002,1.975
	c-0.615,0.406-0.802,0.929-0.769,1.062l0.882,1.36c0.021,0.031,0.033,0.067,0.055,0.101c0.018,0.037,0.038,0.072,0.054,0.11
	c0.016,0.036,0.023,0.077,0.034,0.116c0.011,0.038,0.024,0.074,0.03,0.112c0.008,0.039,0.008,0.08,0.013,0.119
	c0.002,0.038,0.009,0.075,0.008,0.113c-0.002,0.041-0.008,0.08-0.013,0.119c-0.006,0.035-0.006,0.073-0.014,0.11
	c-0.007,0.04-0.021,0.075-0.033,0.113c-0.01,0.037-0.021,0.076-0.033,0.109c-0.015,0.036-0.036,0.069-0.054,0.104
	c-0.021,0.034-0.036,0.069-0.057,0.102c-0.021,0.033-0.049,0.062-0.075,0.093c-0.025,0.031-0.047,0.062-0.077,0.091
	c-0.026,0.027-0.062,0.054-0.095,0.078c-0.028,0.024-0.054,0.052-0.086,0.072c-0.004,0.001-0.007,0.003-0.008,0.005
	c-0.003,0.002-0.004,0.003-0.007,0.006c-0.008,0.004-0.018,0.009-0.025,0.014c-0.02,0.012-0.036,0.02-0.054,0.028
	c-0.023,0.013-0.047,0.029-0.072,0.04c-0.031,0.013-0.061,0.023-0.09,0.034c-0.027,0.008-0.049,0.02-0.075,0.027
	c-0.036,0.012-0.072,0.019-0.107,0.024c-0.021,0.003-0.042,0.008-0.061,0.015c-0.057,0.008-0.114,0.01-0.171,0.01
	c-0.051,0-0.099-0.002-0.147-0.008c-0.014-0.002-0.028-0.006-0.043-0.008c-0.034-0.006-0.068-0.011-0.104-0.019
	c-0.017-0.004-0.033-0.012-0.051-0.017c-0.028-0.008-0.06-0.018-0.088-0.027c-0.018-0.008-0.036-0.017-0.056-0.024
	c-0.026-0.013-0.054-0.023-0.078-0.037c-0.021-0.008-0.037-0.022-0.057-0.032c-0.002,0-0.005-0.003-0.008-0.007
	c-0.021-0.014-0.043-0.024-0.064-0.037c-0.019-0.013-0.035-0.029-0.054-0.043c-0.023-0.019-0.044-0.031-0.064-0.051
	c-0.018-0.017-0.033-0.033-0.05-0.052c-0.02-0.021-0.04-0.038-0.057-0.058c-0.017-0.021-0.029-0.04-0.045-0.058
	c-0.016-0.02-0.031-0.04-0.046-0.061l-2.235-3.349c-0.536-0.807-0.726-1.775-0.534-2.727c0.022-0.113,0.052-0.221,0.084-0.332
	c0.13-0.43,0.337-0.825,0.609-1.173c0.198-0.254,0.433-0.481,0.696-0.678c0.054-0.042,0.106-0.083,0.163-0.12l0.48-0.318
	l7.443-4.904c1.661-1.095,3.929-0.654,5.061,0.982l1.024,1.481c0.014,0.018,0.03,0.038,0.044,0.058l0.487,0.701
	c0.1,0.108,0.191,0.231,0.279,0.356l0.326,0.48c0.188,0.276,0.33,0.485,0.425,0.623c0.061,0.09,0.109,0.173,0.151,0.258l1.184,1.713
	C66.849,76.49,66.91,76.796,66.867,77.089z M40.068,71.042l0.931,3.109l0.146,0.489l0.066,0.22c0.05,0.169,0.061,0.338,0.039,0.503
	c-0.021,0.159-0.075,0.312-0.155,0.45c-0.123,0.354-0.406,0.648-0.791,0.767c-0.002,0-0.006,0.005-0.01,0.005
	c-0.229,0.066-0.461,0.061-0.673,0c-0.386-0.11-0.709-0.405-0.832-0.82l-0.111-0.376l-0.211-0.718l-0.144-0.483l-0.03-0.103
	c-0.053-0.176-0.639-0.468-1.411-0.284l-2.196,0.523l-2.761,0.658L27.653,76c-0.121,0.029-0.23,0.081-0.332,0.14
	c-0.439,0.258-0.684,0.77-0.584,1.287c0.003,0.018,0.001,0.03,0.006,0.043l0.008,0.036c0.078,0.332,0.133,0.577,0.169,0.74
	c0.015,0.056,0.024,0.109,0.033,0.161c0.001,0.009,0.005,0.017,0.006,0.021h-0.001c0,0.004,0,0.004,0,0.009L27.329,80
	c0.16,0.66,0.76,1.122,1.316,1.011l2.171-0.439c0.654-0.131,1.293,0.291,1.425,0.944c0.133,0.655-0.29,1.295-0.944,1.427
	l-2.173,0.44c-0.215,0.043-0.431,0.064-0.645,0.064c-1.602,0-3.1-1.187-3.505-2.888l-0.537-2.255
	c-0.018-0.074-0.038-0.152-0.057-0.235l-0.074-0.311l-0.279-1.177L23.9,76.046c0-0.001-0.001-0.004-0.001-0.006l-0.035-0.152
	l-0.111-0.473l-0.094-0.389c-0.463-1.947,0.743-3.909,2.691-4.372l7.494-1.788l1.738-0.411c1.064-0.255,2.16-0.008,3.02,0.586
	C39.285,69.516,39.819,70.209,40.068,71.042z M32.087,67.388c-0.477,0.468-1.245,0.46-1.712-0.018l-1.35-1.379
	c-0.066-0.041-0.13-0.094-0.189-0.154l-2.013-2.053c-0.485-0.493-1.335-0.525-1.855-0.07l-4.205,3.682l-2.935,2.57
	c-0.455,0.396-0.68,0.778-0.755,0.985c0.129,0.174,0.213,0.337,0.268,0.487l0.079,0.09c0.442,0.502,0.394,1.266-0.108,1.708
	c-0.228,0.203-0.515,0.302-0.8,0.302c-0.335,0-0.668-0.138-0.908-0.41l-1.802-2.039c-0.641-0.727-0.96-1.66-0.896-2.631
	c0.062-0.968,0.498-1.854,1.225-2.492l0.076-0.066l7.066-6.186c0.491-0.428,1.075-0.703,1.686-0.829
	c0.499-0.105,1.017-0.109,1.517-0.013c0.734,0.136,1.428,0.483,1.974,1.04l5.653,5.763C32.571,66.154,32.565,66.92,32.087,67.388z
	 M54.8,58.803c1.902,0.499,3.129,2.474,2.739,4.397l-0.552,2.722c-0.134,0.654-0.773,1.077-1.429,0.943
	c-0.655-0.132-1.078-0.769-0.944-1.427l0.555-2.719c0.137-0.679-0.312-1.399-0.982-1.577l-0.123-0.03
	c-0.028-0.008-0.057-0.008-0.082-0.016l-4.743-1.245c-0.647-0.172-1.309,0.217-1.478,0.862l-1.068,4.056
	c-0.258,0.966-0.882,1.799-1.72,2.288c-0.523,0.302-1.1,0.461-1.676,0.461c-0.274,0-0.548-0.038-0.817-0.107l-2.114-0.562
	c-0.054-0.013-0.106-0.034-0.155-0.057c-0.024-0.01-0.05-0.017-0.073-0.026c-0.049-0.024-0.091-0.055-0.134-0.084
	c-0.022-0.014-0.048-0.027-0.068-0.042c-0.04-0.031-0.073-0.068-0.109-0.104c-0.02-0.021-0.043-0.036-0.062-0.059
	c-0.032-0.036-0.058-0.079-0.086-0.12c-0.015-0.023-0.035-0.042-0.049-0.068c-0.024-0.043-0.042-0.087-0.06-0.131
	c-0.012-0.027-0.028-0.054-0.038-0.08c-0.018-0.049-0.024-0.098-0.036-0.148c-0.005-0.027-0.015-0.052-0.019-0.077
	c-0.008-0.057-0.006-0.113-0.006-0.17c0-0.026-0.006-0.047-0.004-0.069c0.004-0.057,0.017-0.116,0.028-0.175
	c0.004-0.023,0.004-0.044,0.01-0.068l0,0l0,0V65.37l1.684-6.392c0.063-0.236,0.148-0.461,0.249-0.672
	c0.746-1.521,2.485-2.36,4.185-1.916l7.293,1.916L54.8,58.803z M77.589,56.36c-4.007-4.481-18.757-7.806-36.345-7.806
	c-3.783,0-7.435,0.152-10.877,0.44l-2.213-7.132c4.095,0.391,8.51,0.596,13.09,0.596c10.441,0,19.9-0.938,26.644-2.65
	c4.485-1.137,7.736-2.58,9.75-4.321L77.589,56.36z M41.244,20.714c19.809,0,35.921,4.46,36.394,10.016
	c0.003,0.043,0.005,0.086,0.005,0.13c-0.11,2.594-3.775,4.932-10.349,6.598c-6.554,1.664-15.805,2.579-26.05,2.579
	c-4.966,0-9.635-0.244-13.871-0.689l-0.925-2.978c4.389,0.549,9.477,0.846,14.794,0.846c7.355,0,14.284-0.564,19.506-1.584
	c6.112-1.193,8.961-2.769,8.961-4.954c0,0,0-0.001,0-0.002c-0.002-1.778-1.864-3.124-5.856-4.228
	c-0.646-0.182-1.312,0.197-1.489,0.841c-0.181,0.646,0.198,1.312,0.844,1.491c3.199,0.885,3.918,1.676,4.056,1.881
	c0.005,0.007,0.008,0.013,0.01,0.019c-0.134,0.219-1.198,1.514-7.559,2.688c-5.005,0.919-11.564,1.428-18.473,1.428
	c-5.647,0-11.06-0.34-15.585-0.967l-1.073-3.453l-2.521-8.124C27.635,21.276,34.206,20.714,41.244,20.714z M10.562,1.737
	c1.536-0.476,2.988-0.197,3.272,0.621c0.002,0.008,0.007,0.018,0.011,0.028c0.26,0.841-0.786,1.913-2.34,2.395
	C9.952,5.263,8.481,4.973,8.22,4.133C8.218,4.121,8.217,4.112,8.214,4.101C7.988,3.267,9.027,2.214,10.562,1.737z M12.357,24.732
	l1.264,4.079c-0.458,0.458-0.725,0.952-0.811,1.488c-0.021,0.125-0.032,0.251-0.032,0.382c0,1.126,0.76,2.092,2.332,2.926
	l1.205,3.879c-7.067-1.762-11.364-4.31-11.372-7.241c0-0.001,0-0.002,0-0.008c0-0.005,0-0.009,0-0.016
	C5.474,28.164,8.156,26.278,12.357,24.732z"/></svg>