<svg xmlns="http://www.w3.org/2000/svg" version="1.1" viewBox="-5.0 -10.0 110.0 135.0">
 <path d="m87.102 61-1.7031 22c-0.10156 1 0.30078 2.1016 1 2.8008 0.69922 0.80078 1.6992 1.1992 2.6992 1.1992 2.1016 0 3.6992-1.6992 3.6992-3.6992l0.003906-70.301-1.8008 3.6992c-0.60156 1.4023-15.801 33.402-3.8984 44.301z"/>
 <path d="m21.199 27.801v-14.602h-2.1992v13.102c0 0.5-0.39844 1-1 1s-1-0.39844-1-1v-13.102h-1.8984v13.102c0 0.5-0.39844 1-1 1-0.60156 0-1-0.39844-1-1v-13.102h-1.8984v13.102c0 0.5-0.39844 1-1 1s-1-0.39844-1-1l-0.003906-13.102h-2v14.602c0 3.6016 1.6992 6.8984 4.3984 9.1016l-0.59766 43.297c0 1.8008 1.3984 3.1992 3.1992 3.1992s3.1992-1.3984 3.1992-3.1992l-0.59766-43.199c2.8008-2.1992 4.3984-5.6016 4.3984-9.1992z"/>
 <path d="m50 21c-16.5 0-30 13.5-30 30s13.5 30 30 30 30-13.5 30-30-13.5-30-30-30zm0 49c-10.5 0-19-8.5-19-19s8.5-19 19-19 19 8.5 19 19-8.5 19-19 19z"/></svg>