<svg xmlns="http://www.w3.org/2000/svg" xmlns:xlink="http://www.w3.org/1999/xlink" version="1.1" x="0px" y="0px" viewBox="0 0 32 40" style="enable-background:new 0 0 32 32;" xml:space="preserve"><path d="M2.556,12.334c-0.085,0.139-0.072,0.318,0.034,0.443c0.02,0.024,2.019,2.421,2.55,5.556c0.452,2.672,2.31,5.421,6.162,5.421  c0.135,0,0.276-0.008,0.416-0.015c0.235,0.245,0.483,0.48,0.751,0.695c0.067,0.054,0.151,0.083,0.237,0.083h8.625  c0.086,0,0.17-0.029,0.237-0.083c0.461-0.369,0.873-0.786,1.234-1.24c0.206,0.023,0.416,0.058,0.617,0.065  c1.896,0.068,3.492-0.562,4.615-1.82c1.273-1.427,1.782-3.564,1.268-5.318c-0.431-1.468-1.611-2.413-3.079-2.465  c-0.076-0.003-0.153-0.003-0.229-0.001c-0.912,0.023-1.709,0.398-2.273,1.018c-0.021-0.043-0.036-0.089-0.057-0.132H10.375  c-0.548,1.091-0.864,2.329-0.864,3.645c0,0.427,0.044,0.844,0.107,1.256c-0.534-0.077-1.434-0.388-1.826-1.606  c-0.763-2.369-1.449-4.13-2.32-5.027c-0.05-0.052-0.115-0.088-0.186-0.105l-2.321-0.542C2.807,12.127,2.641,12.195,2.556,12.334z   M24.528,18.187c0-0.631-0.076-1.242-0.212-1.829c0.277-0.955,1.085-1.322,1.716-1.338l0.125,0c0.683,0.025,1.524,0.428,1.835,1.486  c0.381,1.298-0.02,2.953-0.976,4.024c-0.574,0.644-1.627,1.389-3.385,1.365C24.208,20.772,24.528,19.509,24.528,18.187z"/><path d="M10.804,13.783h12.43c-1.065-1.642-2.706-2.843-4.618-3.279c0.217-0.315,0.35-0.686,0.35-1.084  c0-1.068-0.874-1.937-1.948-1.937c-1.074,0-1.948,0.869-1.948,1.937c0,0.398,0.133,0.77,0.35,1.084  C13.51,10.94,11.869,12.141,10.804,13.783z"/></svg>